<svg xmlns="http://www.w3.org/2000/svg" width="32" height="32" viewBox="0 0 32 32" fill="none" shape-rendering="crispEdges">
  <rect x="6" y="0" width="20" height="1" fill="#E58B6A"/>
  <rect x="3" y="1" width="26" height="1" fill="#E58B6A"/>
  <rect x="1" y="2" width="30" height="2" fill="#E58B6A"/>
  <rect x="0" y="4" width="32" height="22" fill="#D97757"/>
  <rect x="2" y="4" width="28" height="2" fill="#E58B6A"/>
  <rect x="0" y="13" width="2" height="11" fill="#B85A3C"/>
  <rect x="30" y="13" width="2" height="11" fill="#9F3D2B"/>
  <rect x="1" y="26" width="30" height="2" fill="#B85A3C"/>
  <rect x="4" y="28" width="24" height="2" fill="#8F3F2B"/>
  <rect x="7" y="30" width="18" height="2" fill="#7A2F24"/>

  <rect x="4" y="7" width="24" height="2" fill="#4A2B25"/>
  <rect x="4" y="9" width="2" height="15" fill="#4A2B25"/>
  <rect x="26" y="9" width="2" height="15" fill="#4A2B25"/>
  <rect x="6" y="24" width="8" height="2" fill="#4A2B25"/>
  <rect x="18" y="24" width="8" height="2" fill="#4A2B25"/>
  <rect x="14" y="9" width="4" height="17" fill="#F2C978"/>

  <rect x="6" y="9" width="8" height="15" fill="#FFF6DC"/>
  <rect x="18" y="9" width="8" height="15" fill="#FFF6DC"/>
  <rect x="6" y="22" width="8" height="2" fill="#F6DFA8"/>
  <rect x="18" y="22" width="8" height="2" fill="#F6DFA8"/>

</svg>
