<svg width="1280" height="520" viewBox="0 0 1280 520" fill="none" xmlns="http://www.w3.org/2000/svg" role="img" aria-labelledby="title desc">
  <title id="title">OpenRead banner</title>
  <desc id="desc">Pixel-style illustration of a browser page flowing through a bring-your-own-key LLM provider into bilingual reading.</desc>
  <rect width="1280" height="520" fill="#F0EEE6"/>
  <path d="M0 0H1280V520H0V0Z" fill="#F0EEE6"/>
  <g opacity="0.22">
    <path d="M40 40H80V80H40V40ZM120 40H160V80H120V40ZM1080 400H1120V440H1080V400ZM1160 400H1200V440H1160V400ZM1000 80H1040V120H1000V80ZM1080 80H1120V120H1080V80Z" fill="#D97757"/>
    <path d="M200 440H240V480H200V440ZM280 440H320V480H280V440ZM920 40H960V80H920V40Z" fill="#8F3F2B"/>
  </g>

  <rect x="72" y="64" width="1136" height="392" rx="18" fill="#FFFDF7" stroke="#D8D2C2" stroke-width="4"/>
  <rect x="72" y="64" width="1136" height="56" rx="18" fill="#141413"/>
  <rect x="72" y="102" width="1136" height="18" fill="#141413"/>
  <rect x="104" y="84" width="16" height="16" fill="#D97757"/>
  <rect x="132" y="84" width="16" height="16" fill="#E8E6DC"/>
  <rect x="160" y="84" width="16" height="16" fill="#5F7F3F"/>
  <rect x="214" y="84" width="324" height="16" fill="#3D3D3A"/>
  <rect x="552" y="84" width="70" height="16" fill="#D97757"/>

  <g transform="translate(112 160)">
    <rect x="0" y="0" width="264" height="216" rx="10" fill="#F0EEE6" stroke="#D8D2C2" stroke-width="3"/>
    <rect x="24" y="26" width="112" height="18" fill="#141413"/>
    <rect x="24" y="62" width="200" height="12" fill="#B8B1A4"/>
    <rect x="24" y="90" width="184" height="12" fill="#B8B1A4"/>
    <rect x="24" y="118" width="210" height="12" fill="#B8B1A4"/>
    <rect x="24" y="152" width="148" height="14" fill="#D97757"/>
    <rect x="24" y="178" width="192" height="12" fill="#B8B1A4"/>
    <text x="24" y="248" fill="#3D3D3A" font-family="Inter, ui-sans-serif, system-ui, sans-serif" font-size="24" font-weight="700">Foreign page</text>
  </g>

  <g transform="translate(494 170)">
    <rect x="0" y="0" width="292" height="184" rx="12" fill="#141413"/>
    <rect x="30" y="30" width="54" height="54" fill="#D97757"/>
    <rect x="48" y="44" width="18" height="26" fill="#FFFDF7"/>
    <rect x="68" y="44" width="18" height="26" fill="#FFFDF7"/>
    <rect x="60" y="66" width="12" height="34" fill="#F4C15D"/>
    <rect x="110" y="36" width="128" height="14" fill="#FFFDF7"/>
    <rect x="110" y="66" width="84" height="12" fill="#D8D2C2"/>
    <rect x="30" y="116" width="232" height="18" fill="#3D3D3A"/>
    <rect x="30" y="146" width="156" height="18" fill="#5F7F3F"/>
    <text x="18" y="224" fill="#3D3D3A" font-family="Inter, ui-sans-serif, system-ui, sans-serif" font-size="24" font-weight="700">Your LLM provider</text>
  </g>

  <g transform="translate(904 160)">
    <rect x="0" y="0" width="264" height="216" rx="10" fill="#F0EEE6" stroke="#D8D2C2" stroke-width="3"/>
    <rect x="24" y="26" width="96" height="18" fill="#141413"/>
    <rect x="24" y="64" width="194" height="12" fill="#B8B1A4"/>
    <rect x="24" y="88" width="172" height="12" fill="#B8B1A4"/>
    <rect x="24" y="120" width="208" height="16" fill="#D97757"/>
    <rect x="24" y="150" width="186" height="14" fill="#D97757"/>
    <rect x="24" y="182" width="118" height="12" fill="#5F7F3F"/>
    <text x="20" y="248" fill="#3D3D3A" font-family="Inter, ui-sans-serif, system-ui, sans-serif" font-size="24" font-weight="700">Bilingual reading</text>
  </g>

  <path d="M404 252H456V228L504 262L456 296V272H404V252Z" fill="#8F3F2B"/>
  <path d="M816 252H868V228L916 262L868 296V272H816V252Z" fill="#8F3F2B"/>

  <g transform="translate(112 392)">
    <text x="0" y="0" fill="#141413" font-family="Inter, ui-sans-serif, system-ui, sans-serif" font-size="44" font-weight="800">OpenRead</text>
    <text x="0" y="42" fill="#6F6B62" font-family="Inter, ui-sans-serif, system-ui, sans-serif" font-size="22" font-weight="600">Open the web. Read every language. Bring your own key.</text>
  </g>
</svg>
